<svg width="32" height="32" viewBox="0 0 32 32" fill="none" xmlns="http://www.w3.org/2000/svg">
<g id="FileImage" clip-path="url(#clip0_11160_15955)">
<path id="Vector" d="M19.7809 27.4797L19.7809 27.4797C19.8751 27.6209 19.9292 27.7851 19.9374 27.9546C19.9457 28.1242 19.9077 28.2928 19.8275 28.4425C19.7474 28.5922 19.6282 28.7173 19.4825 28.8044C19.3368 28.8916 19.1702 28.9376 19.0004 28.9375H19.0004H3.00039C2.83193 28.9376 2.66658 28.8923 2.52171 28.8063C2.37684 28.7204 2.2578 28.597 2.1771 28.4492C2.0964 28.3013 2.05703 28.1344 2.06311 27.9661C2.0692 27.7978 2.12052 27.6342 2.21169 27.4926L2.21171 27.4925L6.71171 20.4925L6.65914 20.4587L6.71172 20.4925C6.7966 20.3605 6.9133 20.2518 7.0511 20.1766C7.18889 20.1013 7.34338 20.0619 7.50039 20.0619C7.65739 20.0619 7.81188 20.1013 7.94968 20.1766C8.08748 20.2518 8.20418 20.3605 8.28906 20.4925L8.34164 20.4587L8.28907 20.4925L9.50907 22.3901L9.5607 22.4704L9.61365 22.3909L12.2199 18.4797L12.2199 18.4796C12.3055 18.351 12.4215 18.2456 12.5577 18.1726C12.6938 18.0997 12.8459 18.0615 13.0004 18.0615C13.1549 18.0615 13.3069 18.0997 13.4431 18.1726C13.5793 18.2456 13.6953 18.351 13.7809 18.4796L13.7809 18.4797L19.7809 27.4797ZM26.9379 11V11V27C26.9379 27.5139 26.7338 28.0067 26.3704 28.37C26.0071 28.7334 25.5142 28.9375 25.0004 28.9375H24.0004C23.7517 28.9375 23.5133 28.8387 23.3375 28.6629C23.1617 28.4871 23.0629 28.2486 23.0629 28C23.0629 27.7514 23.1617 27.5129 23.3375 27.3371C23.5133 27.1613 23.7517 27.0625 24.0004 27.0625H25.0004H25.0629V27V12V11.9375H25.0004H19.0004C18.7517 11.9375 18.5133 11.8387 18.3375 11.6629C18.1617 11.4871 18.0629 11.2486 18.0629 11V5V4.9375H18.0004H7.00039H6.93789V5V16C6.93789 16.2486 6.83912 16.4871 6.6633 16.6629C6.48749 16.8387 6.24903 16.9375 6.00039 16.9375C5.75175 16.9375 5.51329 16.8387 5.33748 16.6629C5.16166 16.4871 5.06289 16.2486 5.06289 16V5C5.06289 4.48614 5.26702 3.99333 5.63037 3.62998C5.99372 3.26663 6.48653 3.0625 7.00039 3.0625L19.0004 3.0625L19.0004 3.0625C19.1236 3.0624 19.2456 3.08657 19.3594 3.13362C19.4732 3.18067 19.5766 3.24969 19.6637 3.33672L26.6637 10.3367C26.7507 10.4238 26.8197 10.5272 26.8668 10.641C26.9138 10.7548 26.938 10.8768 26.9379 11ZM19.9379 10V10.0625H20.0004H23.5866H23.7375L23.6308 9.95581L20.0446 6.36956L19.9379 6.26286V6.41375V10Z" fill="#00C651" stroke="#00C651" stroke-width="0.125"/>
</g>
<defs>
<clipPath id="clip0_11160_15955">
<rect width="32" height="32" fill="white"/>
</clipPath>
</defs>
</svg>
