<svg width="25" height="24" viewBox="0 0 25 24" fill="none" xmlns="http://www.w3.org/2000/svg">
<g id="Pause" clip-path="url(#clip0_11120_10000)">
<path id="Vector" d="M20.75 4.5V19.5C20.75 19.8978 20.592 20.2794 20.3107 20.5607C20.0294 20.842 19.6478 21 19.25 21H15.5C15.1022 21 14.7206 20.842 14.4393 20.5607C14.158 20.2794 14 19.8978 14 19.5V4.5C14 4.10218 14.158 3.72064 14.4393 3.43934C14.7206 3.15804 15.1022 3 15.5 3H19.25C19.6478 3 20.0294 3.15804 20.3107 3.43934C20.592 3.72064 20.75 4.10218 20.75 4.5ZM9.5 3H5.75C5.35218 3 4.97064 3.15804 4.68934 3.43934C4.40804 3.72064 4.25 4.10218 4.25 4.5V19.5C4.25 19.8978 4.40804 20.2794 4.68934 20.5607C4.97064 20.842 5.35218 21 5.75 21H9.5C9.89782 21 10.2794 20.842 10.5607 20.5607C10.842 20.2794 11 19.8978 11 19.5V4.5C11 4.10218 10.842 3.72064 10.5607 3.43934C10.2794 3.15804 9.89782 3 9.5 3Z" fill="#ECA633"/>
</g>
<defs>
<clipPath id="clip0_11120_10000">
<rect width="24" height="24" fill="white" transform="translate(0.5)"/>
</clipPath>
</defs>
</svg>
