<svg width="20" height="20" viewBox="0 0 20 20" fill="none" xmlns="http://www.w3.org/2000/svg">
<g id="SpeakerHigh" clip-path="url(#clip0_11307_1857)">
<path id="Vector" d="M15.4727 7.93428C15.9754 8.50497 16.2527 9.23939 16.2527 9.99991C16.2527 10.7604 15.9754 11.4948 15.4727 12.0655V7.93428ZM15.4727 7.93428C15.4184 7.87245 15.3525 7.82193 15.2787 7.78563C15.2049 7.74932 15.1246 7.72795 15.0425 7.72272C14.9604 7.71749 14.8781 7.72852 14.8003 7.75517C14.7557 7.77047 14.713 7.79074 14.6731 7.81553L15.4727 7.93428ZM12.4375 2.51848L12.4375 2.51848V2.51944L12.4375 17.4757L12.4375 17.4768C12.4392 17.5779 12.4147 17.6777 12.3663 17.7665C12.3181 17.8552 12.2477 17.9298 12.1621 17.9832C12.065 18.0408 11.9528 18.0679 11.8401 18.0609C11.7272 18.0539 11.6191 18.013 11.5298 17.9435L6.4075 13.9595C6.40743 13.9594 6.40736 13.9593 6.40728 13.9593C6.37767 13.9358 6.35376 13.906 6.33734 13.872C6.32088 13.8379 6.31239 13.8005 6.3125 13.7626V13.7624L6.3125 6.23759C6.3125 6.23754 6.3125 6.2375 6.3125 6.23745C6.31263 6.19948 6.32142 6.16203 6.33818 6.12796C6.35497 6.09384 6.37932 6.06401 6.40938 6.04072L6.40947 6.04065L11.532 2.05634C11.6331 1.97805 11.7578 1.9365 11.8856 1.93855C12.0132 1.94059 12.1363 1.98596 12.2347 2.06721C12.2994 2.12292 12.3511 2.19216 12.3862 2.27004C12.4213 2.34808 12.4388 2.4329 12.4375 2.51848ZM12.5 2.51944V17.4757V2.51944ZM14.6327 7.92498L14.6639 7.89754C14.7113 7.86174 14.7642 7.83362 14.8206 7.8143C14.8906 7.79032 14.9647 7.78039 15.0386 7.78509C15.1124 7.7898 15.1847 7.80904 15.2511 7.84171C15.3175 7.87439 15.3769 7.91985 15.4257 7.9755L15.4258 7.97559C15.9184 8.53486 16.1902 9.2546 16.1902 9.99991C16.1902 10.7452 15.9184 11.4649 15.4258 12.0242L15.4251 12.0249C15.3767 12.0817 15.3174 12.1282 15.2508 12.1618C15.1842 12.1954 15.1115 12.2155 15.0371 12.2207C14.9627 12.226 14.888 12.2164 14.8173 12.1925C14.7466 12.1686 14.6814 12.1309 14.6254 12.0816C14.5694 12.0322 14.5238 11.9722 14.4913 11.9051C14.4587 11.838 14.4398 11.765 14.4357 11.6905C14.4316 11.616 14.4424 11.5414 14.4674 11.4711C14.4924 11.4008 14.5312 11.3362 14.5814 11.281L14.5821 11.2803C14.8936 10.9265 15.0654 10.4713 15.0654 9.99991C15.0654 9.52853 14.8936 9.07333 14.5821 8.71954L14.582 8.71951C14.5331 8.66405 14.4956 8.59948 14.4717 8.52951C14.4478 8.45954 14.4379 8.38555 14.4426 8.31175C14.4473 8.23795 14.4665 8.16581 14.4991 8.09944C14.5317 8.03308 14.5771 7.97379 14.6327 7.92498ZM17.738 5.87361L17.738 5.87363L17.7394 5.87517C18.7539 7.00955 19.3147 8.47804 19.3147 9.99991C19.3147 11.5218 18.7539 12.9903 17.7394 14.1246L17.738 14.1262C17.6896 14.1841 17.6301 14.2316 17.5629 14.266C17.4958 14.3003 17.4224 14.3209 17.3472 14.3263C17.2719 14.3317 17.1964 14.322 17.125 14.2976C17.0536 14.2733 16.9878 14.2348 16.9316 14.1845C16.8754 14.1343 16.8299 14.0732 16.7977 14.005C16.7656 13.9367 16.7475 13.8627 16.7445 13.7873C16.7416 13.712 16.7538 13.6368 16.7805 13.5662C16.8072 13.4957 16.8478 13.4312 16.8999 13.3767L16.8999 13.3767L16.9013 13.3752C17.7316 12.447 18.1906 11.2453 18.1906 9.99991C18.1906 8.75452 17.7316 7.55284 16.9013 6.62464L16.9013 6.62462L16.8999 6.62314C16.8478 6.5686 16.8072 6.50414 16.7805 6.43359C16.7538 6.36304 16.7416 6.28785 16.7445 6.21248C16.7475 6.1371 16.7656 6.0631 16.7977 5.99486C16.8299 5.92662 16.8754 5.86555 16.9316 5.81526C16.9878 5.76498 17.0536 5.72652 17.125 5.70217C17.1964 5.67782 17.2719 5.66808 17.3472 5.67352C17.4224 5.67896 17.4958 5.69948 17.5629 5.73386C17.6301 5.76823 17.6896 5.81576 17.738 5.87361ZM2.5 6.31241H4.6875C4.7538 6.31241 4.81739 6.33875 4.86428 6.38563C4.91116 6.43251 4.9375 6.4961 4.9375 6.56241V13.4374C4.9375 13.5037 4.91116 13.5673 4.86428 13.6142C4.81739 13.6611 4.7538 13.6874 4.6875 13.6874H2.5C2.18506 13.6874 1.88301 13.5623 1.66031 13.3396C1.43761 13.1169 1.3125 12.8149 1.3125 12.4999V7.49991C1.3125 7.18496 1.43761 6.88292 1.66031 6.66022C1.88301 6.43752 2.18506 6.31241 2.5 6.31241Z" fill="#323232" stroke="#323232" stroke-width="0.125"/>
</g>
<defs>
<clipPath id="clip0_11307_1857">
<rect width="20" height="20" fill="white"/>
</clipPath>
</defs>
</svg>
