<svg width="32" height="32" viewBox="0 0 32 32" fill="none" xmlns="http://www.w3.org/2000/svg">
<g id="FileAudio" clip-path="url(#clip0_11185_9258)">
<path id="Vector" d="M12.3585 16.134L12.3586 16.134C12.5299 16.2049 12.6764 16.3251 12.7794 16.4792C12.8824 16.6334 12.9375 16.8146 12.9375 17V28V28C12.9376 28.1856 12.8827 28.367 12.7797 28.5213C12.6767 28.6756 12.5303 28.7959 12.3589 28.8669C12.1875 28.9379 11.9989 28.9565 11.8169 28.9202C11.6349 28.884 11.4678 28.7946 11.3367 28.6633L11.3367 28.6633L8.63045 25.9558L8.61215 25.9375H8.58625H6C5.75136 25.9375 5.5129 25.8387 5.33709 25.6629C5.16127 25.4871 5.0625 25.2486 5.0625 25V20C5.0625 19.7514 5.16127 19.5129 5.33709 19.3371C5.5129 19.1613 5.75136 19.0625 6 19.0625H8.58625H8.61215L8.63045 19.0442L11.3367 16.3367C11.4679 16.2056 11.635 16.1164 11.8169 16.0803C11.9988 16.0442 12.1873 16.0629 12.3585 16.134ZM26.9375 11V11V27C26.9375 27.5139 26.7334 28.0067 26.37 28.37C26.0067 28.7334 25.5139 28.9375 25 28.9375H21C20.7514 28.9375 20.5129 28.8387 20.3371 28.6629C20.1613 28.4871 20.0625 28.2486 20.0625 28C20.0625 27.7514 20.1613 27.5129 20.3371 27.3371C20.5129 27.1613 20.7514 27.0625 21 27.0625H25H25.0625V27V12V11.9375H25H19C18.7514 11.9375 18.5129 11.8387 18.3371 11.6629C18.1613 11.4871 18.0625 11.2486 18.0625 11V5V4.9375H18H7H6.9375V5V15C6.9375 15.2486 6.83873 15.4871 6.66291 15.6629C6.4871 15.8387 6.24864 15.9375 6 15.9375C5.75136 15.9375 5.5129 15.8387 5.33709 15.6629C5.16127 15.4871 5.0625 15.2486 5.0625 15V5C5.0625 4.48614 5.26663 3.99333 5.62998 3.62998C5.99333 3.26663 6.48614 3.0625 7 3.0625L19 3.0625L19 3.0625C19.1232 3.0624 19.2452 3.08657 19.359 3.13362C19.4728 3.18067 19.5762 3.24967 19.6633 3.33669C19.6633 3.3367 19.6633 3.33671 19.6633 3.33672L26.6633 10.3367C26.7503 10.4238 26.8193 10.5272 26.8664 10.641C26.9134 10.7548 26.9376 10.8768 26.9375 11ZM19.9375 10V10.0625H20H23.5863H23.7371L23.6304 9.95581L20.0442 6.36956L19.9375 6.26286V6.41375V10ZM18.9375 22.5C18.9365 23.3711 18.7082 24.2269 18.2751 24.9827C17.8425 25.738 17.2204 26.3673 16.4702 26.8088C16.2572 26.9142 16.0121 26.9348 15.7844 26.8664C15.556 26.7977 15.3624 26.6446 15.2429 26.4382C15.1235 26.2319 15.0871 25.9877 15.1413 25.7555C15.1954 25.5238 15.3355 25.3214 15.5333 25.1892C16.0004 24.9131 16.3876 24.5201 16.6566 24.0488C16.926 23.5771 17.0677 23.0432 17.0677 22.5C17.0677 21.9568 16.926 21.4229 16.6566 20.9512C16.3876 20.4799 16.0004 20.0869 15.5333 19.8108C15.3355 19.6786 15.1954 19.4762 15.1413 19.2445C15.0871 19.0123 15.1235 18.7681 15.2429 18.5618C15.3624 18.3554 15.556 18.2023 15.7844 18.1336C16.0121 18.0652 16.2572 18.0858 16.4702 18.1912C17.2204 18.6327 17.8425 19.262 18.2751 20.0173C18.7082 20.7731 18.9365 21.6289 18.9375 22.5Z" fill="#00C651" stroke="#00C651" stroke-width="0.125"/>
</g>
<defs>
<clipPath id="clip0_11185_9258">
<rect width="32" height="32" fill="white"/>
</clipPath>
</defs>
</svg>
